# xmcd
#
# Track frame offsets: 
#        183
#        18910
#        32055
#        49775
#        70795
#        87758
#        113355
#        131518
#        147853
#        164778
#        179023
#        195690
#        207683
#        222443
#        236083
#        248725
#        264755
#        282365
#        299100
#        317438
#
# Disc length: 4441 seconds
#
# Revision: 1
# Processed by: cddbd v1.5.2PL0 Copyright (c) Steve Scherf et al.
# Submitted via: ExactAudioCopy v0.99pb4
#
DISCID=32115714
DTITLE=Various Artistis - A Golden Hour of Trad Jazz Volume II
DYEAR=1990
DGENRE=Jazz
TTITLE0=South Rampart Street Parade - Mr. Acker Bilk and his Paramount J
TTITLE0=azz Band - 1972
TTITLE1=Grandpa's Spells - Terry Lightfoot and His Band - 1987
TTITLE2=Rider - Kenny Ball  - 1976
TTITLE3=Downhearted Blues - George Melly and John Chiltern's Feetwarmers
TTITLE3=1980
TTITLE4=Oh! Mr. Jelly - Max Harris and The New Red Hot Peppers - 1975
TTITLE5=Mood Indigo - Kenny Ball - 1976
TTITLE6=Chelsea Cake Walk - Mr. Acker Bilk and his Paramount Jazz Band -
TTITLE6=1975
TTITLE7=Lonesome - Terry Lightfoot and His Band - 1987
TTITLE8=You've Got the Right Key, But the Wrong Keyhole -  George Mell
TTITLE8=y and John Chiltern's Feetwarmers - 1981
TTITLE9=Shreveport Stomp - Max Harris and The New Red Hot Peppers - 1975
TTITLE10=Milenburg Joys - Kenny Ball - 1976
TTITLE11=Someday Sweetheart -  George Melly and John Chiltern's Feetwarm
TTITLE11=ers - 1988
TTITLE12=Black Bottom Stomp - Max Harris and The New Red Hot Peppers - 1
TTITLE12=975
TTITLE13='Taint What You Do (It's the Way That You Do It) - Terry Ligh
TTITLE13=tfoot and His Band - 1987
TTITLE14=Burgandy Street - Mr. Acker Bilk and his Paramount Jazz Band - 
TTITLE14=1972
TTITLE15=Ragsy - Kenny Ball - 1976
TTITLE16=As Time Goes By - Terry Lightfoot and His Band - 1987
TTITLE17=Wolverine Blues - Mr. Acker Bilk and his Paramount Jazz Band - 
TTITLE17=1972
TTITLE18=I've Got What It Takes -  George Melly and John Chiltern's Feet
TTITLE18=warmers - 1988
TTITLE19=Doctor Jazz - Max Harris and The New Red Hot Peppers - 1975 
EXTD=YEAR: 1990
EXTT0=
EXTT1=
EXTT2=
EXTT3=
EXTT4=
EXTT5=
EXTT6=
EXTT7=
EXTT8=
EXTT9=
EXTT10=
EXTT11=
EXTT12=
EXTT13=
EXTT14=
EXTT15=
EXTT16=
EXTT17=
EXTT18=
EXTT19=
PLAYORDER=
